<svg width="44" height="44" viewBox="0 0 44 44" fill="none" xmlns="http://www.w3.org/2000/svg">
<path fill-rule="evenodd" clip-rule="evenodd" d="M38.9946 17.8547C40.0104 20.9221 39.9814 24.2344 39.9106 27.0841L39.907 27.2547C39.895 27.7357 39.6923 28.1924 39.3436 28.524C38.995 28.8557 38.5288 29.0353 38.0477 29.0233C37.5666 29.0112 37.11 28.8086 36.7783 28.4599C36.4467 28.1112 36.2671 27.645 36.2791 27.164L36.2845 26.9953C36.3553 24.0984 36.3408 21.3865 35.5499 18.9957C34.9511 17.1936 34.0045 15.5265 32.7637 14.089C30.2434 11.1841 26.6763 9.39425 22.8411 9.11013C19.0059 8.82602 15.214 10.0707 12.2932 12.5725C10.8506 13.8073 9.66641 15.3151 8.80875 17.0093C7.95109 18.7034 7.4369 20.5504 7.29577 22.444C7.20145 23.6993 7.22321 24.4394 7.25586 25.4879C7.27582 26.1627 7.30121 26.9662 7.30121 28.1163C7.30121 28.5974 7.1101 29.0588 6.76992 29.3989C6.42974 29.7391 5.96835 29.9302 5.48726 29.9302C5.00617 29.9302 4.54478 29.7391 4.2046 29.3989C3.86442 29.0588 3.67331 28.5974 3.67331 28.1163C3.67331 27.2256 3.65335 26.4946 3.6334 25.8216C3.60075 24.6099 3.57173 23.5923 3.67875 22.1756C3.8554 19.8062 4.49858 17.4952 5.57132 15.3752C6.64407 13.2553 8.12521 11.3682 9.92963 9.82256C13.5759 6.68875 18.3172 5.13073 23.1116 5.49084C27.9038 5.84747 32.3603 8.08549 35.5082 11.7163C37.0611 13.5144 38.2457 15.6 38.9946 17.8547Z" fill="white"/>
<path fill-rule="evenodd" clip-rule="evenodd" d="M16.4252 28.4773L16.9222 34.1549C16.9818 34.833 16.9071 35.5162 16.7026 36.1654C16.4981 36.8147 16.1676 37.4173 15.7302 37.9388C15.2927 38.4603 14.7568 38.8905 14.153 39.2049C13.5493 39.5193 12.8895 39.7116 12.2114 39.7709C10.226 39.9445 8.25289 39.3223 6.72618 38.0412C5.19947 36.7601 4.24415 34.925 4.07037 32.9396L3.61688 27.7771C3.55462 27.065 3.63323 26.3477 3.84823 25.6661C4.06323 24.9844 4.41041 24.3518 4.86993 23.8044C5.32945 23.2569 5.89232 22.8053 6.52639 22.4755C7.16045 22.1456 7.8533 21.9438 8.56534 21.8817C10.4822 21.7142 12.3871 22.315 13.8611 23.5518C15.3351 24.7887 16.2574 26.5604 16.4252 28.4773ZM8.88097 25.4951C8.40184 25.5371 7.95899 25.7676 7.64979 26.136C7.34058 26.5044 7.19034 26.9805 7.23209 27.4596L7.68558 32.624C7.77548 33.6504 8.26925 34.5992 9.05837 35.2618C9.84749 35.9244 10.8674 36.2466 11.8939 36.1575C12.0976 36.14 12.2957 36.0824 12.4771 35.9882C12.6584 35.8939 12.8194 35.7649 12.9508 35.6083C13.0822 35.4518 13.1815 35.2709 13.2429 35.076C13.3044 34.8811 13.3268 34.676 13.3088 34.4724L12.8118 28.7947C12.7705 28.3199 12.636 27.8579 12.4161 27.4351C12.1962 27.0122 11.8951 26.6369 11.53 26.3305C11.165 26.0241 10.7432 25.7926 10.2886 25.6492C9.83408 25.5059 9.35575 25.4535 8.88097 25.4951ZM39.4624 33.1972L39.9594 27.5195C40.019 26.8414 39.9443 26.1582 39.7398 25.509C39.5353 24.8597 39.2048 24.2572 38.7674 23.7356C38.3299 23.2141 37.794 22.7839 37.1902 22.4695C36.5865 22.1552 35.9267 21.9628 35.2486 21.9035C33.2632 21.7299 31.2901 22.3521 29.7634 23.6332C28.2367 24.9143 27.2814 26.7494 27.1076 28.7348L26.6541 33.8974C26.5918 34.6094 26.6704 35.3267 26.8854 36.0084C27.1004 36.69 27.4476 37.3226 27.9071 37.8701C28.3667 38.4175 28.9295 38.8691 29.5636 39.199C30.1977 39.5289 30.8905 39.7306 31.6025 39.7927C33.5194 39.9602 35.4243 39.3595 36.8983 38.1226C38.3723 36.8857 39.2946 35.114 39.4624 33.1972ZM31.9182 36.1793C31.439 36.1374 30.9962 35.9068 30.687 35.5384C30.3778 35.1701 30.2275 34.6939 30.2693 34.2148L30.7228 29.0505C30.8127 28.024 31.3065 27.0752 32.0956 26.4126C32.8847 25.75 33.9046 25.4279 34.9312 25.5169C35.3418 25.5538 35.7212 25.7517 35.9863 26.0675C36.2514 26.3833 36.3808 26.7912 36.346 27.2021L35.849 32.8797C35.8077 33.3545 35.6732 33.8165 35.4533 34.2394C35.2334 34.6622 34.9323 35.0375 34.5672 35.344C34.2022 35.6504 33.7804 35.8819 33.3258 36.0252C32.8713 36.1685 32.393 36.2209 31.9182 36.1793Z" fill="white"/>
</svg>
