<svg width="22" height="21" viewBox="0 0 22 21" fill="none" xmlns="http://www.w3.org/2000/svg">
<path d="M7.50098 13.0001H14.5012M7.50098 8H11.0011" stroke="black" stroke-opacity="0.8" stroke-width="2" stroke-linecap="round" stroke-linejoin="round"/>
<path d="M13.17 19.3909C17.3542 19.1139 20.6862 15.7338 20.9602 11.4907C21.0132 10.6607 21.0132 9.80065 20.9602 8.97063C20.6862 4.72852 17.3542 1.35043 13.17 1.07143C11.7249 0.976191 10.2751 0.976191 8.82993 1.07143C4.64582 1.34943 1.31374 4.72852 1.03973 8.97163C0.986757 9.81082 0.986757 10.6525 1.03973 11.4917C1.13973 13.0367 1.82275 14.4678 2.62777 15.6758C3.09478 16.5208 2.78678 17.5759 2.29976 18.4989C1.94975 19.1639 1.77375 19.4959 1.91475 19.7359C2.05476 19.9759 2.36977 19.9839 2.99878 19.9989C4.24381 20.0289 5.08284 19.6769 5.74885 19.1859C6.12586 18.9069 6.31487 18.7679 6.44487 18.7519C6.57487 18.7359 6.83188 18.8419 7.34389 19.0519C7.80391 19.2419 8.33892 19.3589 8.82893 19.3919C10.254 19.4859 11.743 19.4859 13.171 19.3919L13.17 19.3909Z" stroke="black" stroke-opacity="0.8" stroke-width="2" stroke-linejoin="round"/>
</svg>
