<svg width="24" height="23" viewBox="0 0 24 23" fill="none" xmlns="http://www.w3.org/2000/svg">
<path d="M14.3871 21.23C18.9896 20.9253 22.6549 17.2072 22.9563 12.5398C23.0146 11.6267 23.0146 10.6807 22.9563 9.7677C22.6549 5.10137 18.9896 1.38548 14.3871 1.07857C12.7974 0.97381 11.2026 0.97381 9.61293 1.07857C5.01041 1.38438 1.34511 5.10137 1.0437 9.76879C0.985432 10.6919 0.985432 11.6178 1.0437 12.5409C1.15371 14.2404 1.90503 15.8146 2.79055 17.1434C3.30426 18.0729 2.96545 19.2334 2.42974 20.2488C2.04473 20.9803 1.85112 21.3455 2.00623 21.6095C2.16023 21.8735 2.50674 21.8823 3.19866 21.8988C4.5682 21.9318 5.49112 21.5446 6.22374 21.0045C6.63845 20.6976 6.84635 20.5447 6.98936 20.5271C7.13236 20.5095 7.41507 20.6261 7.97828 20.8571C8.4843 21.0661 9.07281 21.1948 9.61183 21.2311C11.1794 21.3345 12.8173 21.3345 14.3882 21.2311L14.3871 21.23Z" stroke="black" stroke-opacity="0.8" stroke-width="2" stroke-linejoin="round"/>
</svg>
