<svg width="16" height="19" viewBox="0 0 16 19" fill="none" xmlns="http://www.w3.org/2000/svg">
<path d="M0 2.23556C0 1.64265 0.240918 1.07403 0.669754 0.654779C1.09859 0.235531 1.68022 0 2.28668 0H11.4334C12.0399 0 12.6215 0.235531 13.0503 0.654779C13.4792 1.07403 13.7201 1.64265 13.7201 2.23556V13.2826L12.5768 14.4115V2.23556C12.5768 1.9391 12.4563 1.65479 12.2419 1.44517C12.0275 1.23554 11.7367 1.11778 11.4334 1.11778H2.28668C1.98345 1.11778 1.69264 1.23554 1.47822 1.44517C1.2638 1.65479 1.14334 1.9391 1.14334 2.23556V15.6489C1.14334 15.9454 1.2638 16.2297 1.47822 16.4393C1.69264 16.6489 1.98345 16.7667 2.28668 16.7667H6.95723C7.03841 16.9902 7.16875 17.2015 7.35054 17.3815L7.85476 17.8845H2.28668C1.68022 17.8845 1.09859 17.6489 0.669754 17.2297C0.240918 16.8104 0 16.2418 0 15.6489V2.23556ZM4.57337 3.91223C4.57337 4.20868 4.45291 4.49299 4.23849 4.70261C4.02407 4.91224 3.73326 5.03 3.43003 5.03C3.12679 5.03 2.83598 4.91224 2.62156 4.70261C2.40714 4.49299 2.28668 4.20868 2.28668 3.91223C2.28668 3.61577 2.40714 3.33146 2.62156 3.12184C2.83598 2.91221 3.12679 2.79445 3.43003 2.79445C3.73326 2.79445 4.02407 2.91221 4.23849 3.12184C4.45291 3.33146 4.57337 3.61577 4.57337 3.91223ZM6.28838 3.35334C6.13676 3.35334 5.99136 3.41222 5.88415 3.51703C5.77694 3.62184 5.71671 3.764 5.71671 3.91223C5.71671 4.06045 5.77694 4.20261 5.88415 4.30742C5.99136 4.41223 6.13676 4.47111 6.28838 4.47111H10.8617C11.0134 4.47111 11.1588 4.41223 11.266 4.30742C11.3732 4.20261 11.4334 4.06045 11.4334 3.91223C11.4334 3.764 11.3732 3.62184 11.266 3.51703C11.1588 3.41222 11.0134 3.35334 10.8617 3.35334H6.28838ZM6.28838 7.82445C6.13676 7.82445 5.99136 7.88333 5.88415 7.98814C5.77694 8.09296 5.71671 8.23511 5.71671 8.38334C5.71671 8.53157 5.77694 8.67372 5.88415 8.77853C5.99136 8.88335 6.13676 8.94223 6.28838 8.94223H10.8617C11.0134 8.94223 11.1588 8.88335 11.266 8.77853C11.3732 8.67372 11.4334 8.53157 11.4334 8.38334C11.4334 8.23511 11.3732 8.09296 11.266 7.98814C11.1588 7.88333 11.0134 7.82445 10.8617 7.82445H6.28838ZM5.71671 12.8545C5.71671 12.7062 5.77694 12.5641 5.88415 12.4593C5.99136 12.3544 6.13676 12.2956 6.28838 12.2956H10.8617C11.0134 12.2956 11.1588 12.3544 11.266 12.4593C11.3732 12.5641 11.4334 12.7062 11.4334 12.8545C11.4334 13.0027 11.3732 13.1448 11.266 13.2496C11.1588 13.3545 11.0134 13.4133 10.8617 13.4133H6.28838C6.13676 13.4133 5.99136 13.3545 5.88415 13.2496C5.77694 13.1448 5.71671 13.0027 5.71671 12.8545ZM3.43003 9.50112C3.73326 9.50112 4.02407 9.38335 4.23849 9.17373C4.45291 8.9641 4.57337 8.67979 4.57337 8.38334C4.57337 8.08689 4.45291 7.80258 4.23849 7.59295C4.02407 7.38333 3.73326 7.26556 3.43003 7.26556C3.12679 7.26556 2.83598 7.38333 2.62156 7.59295C2.40714 7.80258 2.28668 8.08689 2.28668 8.38334C2.28668 8.67979 2.40714 8.9641 2.62156 9.17373C2.83598 9.38335 3.12679 9.50112 3.43003 9.50112ZM3.43003 13.9722C3.73326 13.9722 4.02407 13.8545 4.23849 13.6448C4.45291 13.4352 4.57337 13.1509 4.57337 12.8545C4.57337 12.558 4.45291 12.2737 4.23849 12.0641C4.02407 11.8544 3.73326 11.7367 3.43003 11.7367C3.12679 11.7367 2.83598 11.8544 2.62156 12.0641C2.40714 12.2737 2.28668 12.558 2.28668 12.8545C2.28668 13.1509 2.40714 13.4352 2.62156 13.6448C2.83598 13.8545 3.12679 13.9722 3.43003 13.9722ZM15.841 14.3657C15.9448 14.2599 16.0019 14.1184 16 13.9718C15.9981 13.8253 15.9373 13.6853 15.8308 13.5821C15.7244 13.4788 15.5807 13.4207 15.4307 13.42C15.2808 13.4194 15.1366 13.4764 15.0292 13.5788L10.864 17.6922L8.98324 15.8166C8.93098 15.7629 8.86834 15.72 8.79896 15.6903C8.72958 15.6605 8.65484 15.6445 8.57909 15.6433C8.50334 15.642 8.42809 15.6555 8.35771 15.6829C8.28734 15.7103 8.22324 15.7512 8.16914 15.803C8.11504 15.8549 8.07202 15.9167 8.04259 15.9849C8.01315 16.0532 7.99789 16.1265 7.99768 16.2005C7.99747 16.2746 8.01232 16.348 8.04137 16.4164C8.07042 16.4848 8.11308 16.5469 8.16689 16.599L10.3724 18.7988C10.4361 18.8623 10.512 18.9128 10.5959 18.9474C10.6797 18.9819 10.7697 18.9998 10.8607 19C10.9517 19.0002 11.0418 18.9827 11.1258 18.9486C11.2098 18.9144 11.286 18.8643 11.35 18.801L15.841 14.3657Z" fill="black"/>
</svg>
