<svg width="20" height="22" viewBox="0 0 20 22" fill="none" xmlns="http://www.w3.org/2000/svg">
<path d="M9.95853 17.2984H17.2435C17.5272 17.3143 17.8102 17.2573 18.0656 17.1328C18.321 17.0082 18.5402 16.8204 18.7024 16.5871C18.8646 16.3538 18.9643 16.0828 18.992 15.8C19.0198 15.5173 18.9747 15.2321 18.8609 14.9717C18.4758 13.8078 16.9407 12.4118 16.9407 11.0382C16.9407 7.98946 16.9407 7.18714 15.4388 5.39424C14.9528 4.81715 14.3502 4.34941 13.6705 4.02175L12.8329 3.61525C12.6924 3.53042 12.5711 3.41711 12.477 3.28262C12.3829 3.14813 12.3179 2.99543 12.2863 2.83433C12.2026 2.29134 11.9155 1.80051 11.4832 1.4614C11.0509 1.1223 10.5058 0.9603 9.95853 1.00827C9.42111 0.975997 8.89095 1.14521 8.4716 1.48288C8.05224 1.82054 7.77381 2.30239 7.69068 2.83433C7.65297 3.00099 7.5791 3.15732 7.47428 3.29227C7.36947 3.42721 7.23628 3.53748 7.08414 3.61525L6.24653 4.02175C5.56728 4.34954 4.96504 4.81727 4.47932 5.39424C2.97847 7.18714 2.97847 7.98946 2.97847 11.0382C2.97847 12.4118 1.51292 13.6677 1.12782 14.9011C0.895683 15.6467 0.767314 17.2984 2.71103 17.2984H9.95853Z" stroke="black" stroke-opacity="0.8" stroke-width="2" stroke-linecap="round" stroke-linejoin="round"/>
<path d="M13.4501 17.2983C13.4593 17.7592 13.3752 18.2172 13.2031 18.6448C13.0309 19.0725 12.7741 19.4609 12.4481 19.7869C12.1222 20.1129 11.7337 20.3697 11.3061 20.5418C10.8784 20.714 10.4204 20.798 9.95952 20.7889C9.49851 20.7986 9.04028 20.715 8.61242 20.5431C8.18457 20.3711 7.79594 20.1143 7.46993 19.7882C7.14391 19.4621 6.88726 19.0734 6.71542 18.6455C6.54358 18.2176 6.46011 17.7593 6.47003 17.2983" stroke="black" stroke-opacity="0.8" stroke-width="2" stroke-linecap="round" stroke-linejoin="round"/>
</svg>
