<svg width="13" height="13" viewBox="0 0 13 13" fill="none" xmlns="http://www.w3.org/2000/svg">
<path d="M12.0714 7.42857H7.42857V12.0714C7.42857 12.3177 7.33074 12.5539 7.1566 12.728C6.98246 12.9022 6.74627 13 6.5 13C6.25373 13 6.01754 12.9022 5.8434 12.728C5.66926 12.5539 5.57143 12.3177 5.57143 12.0714V7.42857H0.928571C0.682299 7.42857 0.446113 7.33074 0.271972 7.1566C0.0978315 6.98246 0 6.74627 0 6.5C0 6.25373 0.0978315 6.01754 0.271972 5.8434C0.446113 5.66926 0.682299 5.57143 0.928571 5.57143H5.57143V0.928571C5.57143 0.682299 5.66926 0.446113 5.8434 0.271972C6.01754 0.0978311 6.25373 0 6.5 0C6.74627 0 6.98246 0.0978311 7.1566 0.271972C7.33074 0.446113 7.42857 0.682299 7.42857 0.928571V5.57143H12.0714C12.3177 5.57143 12.5539 5.66926 12.728 5.8434C12.9022 6.01754 13 6.25373 13 6.5C13 6.74627 12.9022 6.98246 12.728 7.1566C12.5539 7.33074 12.3177 7.42857 12.0714 7.42857Z" fill="#4B5563"/>
</svg>
