<svg width="20" height="24" viewBox="0 0 20 24" fill="none" xmlns="http://www.w3.org/2000/svg">
<path d="M1.17647 12C0.864451 12 0.565212 12.1264 0.344581 12.3515C0.123949 12.5765 0 12.8817 0 13.2V22.8C0 23.1183 0.123949 23.4235 0.344581 23.6485C0.565212 23.8736 0.864451 24 1.17647 24C1.48849 24 1.78773 23.8736 2.00836 23.6485C2.22899 23.4235 2.35294 23.1183 2.35294 22.8V13.2C2.35294 12.8817 2.22899 12.5765 2.00836 12.3515C1.78773 12.1264 1.48849 12 1.17647 12ZM7.05882 0C6.7468 0 6.44756 0.126428 6.22693 0.351472C6.0063 0.576515 5.88235 0.88174 5.88235 1.2V22.8C5.88235 23.1183 6.0063 23.4235 6.22693 23.6485C6.44756 23.8736 6.7468 24 7.05882 24C7.37084 24 7.67008 23.8736 7.89071 23.6485C8.11135 23.4235 8.23529 23.1183 8.23529 22.8V1.2C8.23529 0.88174 8.11135 0.576515 7.89071 0.351472C7.67008 0.126428 7.37084 0 7.05882 0ZM18.8235 16.8C18.5115 16.8 18.2123 16.9264 17.9916 17.1515C17.771 17.3765 17.6471 17.6817 17.6471 18V22.8C17.6471 23.1183 17.771 23.4235 17.9916 23.6485C18.2123 23.8736 18.5115 24 18.8235 24C19.1355 24 19.4348 23.8736 19.6554 23.6485C19.8761 23.4235 20 23.1183 20 22.8V18C20 17.6817 19.8761 17.3765 19.6554 17.1515C19.4348 16.9264 19.1355 16.8 18.8235 16.8ZM12.9412 7.2C12.6292 7.2 12.3299 7.32643 12.1093 7.55147C11.8887 7.77652 11.7647 8.08174 11.7647 8.4V22.8C11.7647 23.1183 11.8887 23.4235 12.1093 23.6485C12.3299 23.8736 12.6292 24 12.9412 24C13.2532 24 13.5524 23.8736 13.7731 23.6485C13.9937 23.4235 14.1176 23.1183 14.1176 22.8V8.4C14.1176 8.08174 13.9937 7.77652 13.7731 7.55147C13.5524 7.32643 13.2532 7.2 12.9412 7.2Z" fill="black"/>
</svg>
