<svg width="20" height="21" viewBox="0 0 20 21" fill="none" xmlns="http://www.w3.org/2000/svg">
<path d="M8.7732 21C8.49874 21 8.26085 20.9109 8.05953 20.7328C7.85742 20.5547 7.73199 20.3327 7.68323 20.0667L7.37299 17.626C6.9963 17.5132 6.58894 17.3367 6.15091 17.0963C5.71366 16.8552 5.34129 16.597 5.03381 16.3217L2.77484 17.283C2.52554 17.3919 2.27232 17.4036 2.01516 17.318C1.758 17.2324 1.55983 17.0711 1.42063 16.8338L0.147825 14.665C0.00863017 14.4278 -0.0322634 14.1797 0.0251447 13.9207C0.0825528 13.6617 0.219389 13.4493 0.435652 13.2837L2.40797 11.8253C2.37259 11.6138 2.34388 11.3964 2.32186 11.1732C2.29827 10.9492 2.28647 10.7318 2.28647 10.521C2.28647 10.325 2.29827 10.1189 2.32186 9.90267C2.34388 9.68645 2.37259 9.443 2.40797 9.17234L0.435652 7.714C0.219389 7.54834 0.0864849 7.3325 0.0369409 7.0665C-0.0126031 6.8005 0.0318294 6.5485 0.170238 6.3105L1.42063 4.2105C1.55983 3.98728 1.758 3.82939 2.01516 3.73684C2.27232 3.64428 2.52554 3.65245 2.77484 3.76134L5.01139 4.69934C5.36371 4.40923 5.74512 4.1475 6.15562 3.91417C6.56456 3.68084 6.96288 3.50039 7.35058 3.37284L7.68441 0.932172C7.73238 0.666172 7.85742 0.444116 8.05953 0.266005C8.26163 0.0878939 8.49953 -0.000772705 8.7732 5.07247e-06H11.2268C11.5013 5.07247e-06 11.7392 0.0890607 11.9405 0.267172C12.1426 0.445283 12.268 0.667338 12.3168 0.933338L12.627 3.39734C13.0792 3.55445 13.4787 3.7345 13.8255 3.9375C14.1723 4.1405 14.5297 4.39484 14.8978 4.7005L17.2476 3.7625C17.4977 3.65362 17.7513 3.64545 18.0084 3.738C18.2656 3.83056 18.4634 3.98845 18.6018 4.21167L19.8522 6.33384C19.9914 6.57184 20.0323 6.81995 19.9749 7.07817C19.9174 7.33639 19.7806 7.54911 19.5643 7.71634L17.5024 9.24C17.5669 9.48111 17.603 9.70239 17.6109 9.90384C17.6188 10.1053 17.6227 10.3036 17.6227 10.4988C17.6227 10.6801 17.6148 10.871 17.5991 11.0717C17.5842 11.2731 17.5496 11.5166 17.4953 11.802L19.4889 13.2837C19.7051 13.4493 19.8459 13.6617 19.9112 13.9207C19.9764 14.1797 19.9395 14.4278 19.8003 14.665L18.5428 16.8105C18.4044 17.0485 18.2027 17.2099 17.9377 17.2947C17.6726 17.3802 17.4155 17.3686 17.1662 17.2597L14.8978 16.2983C14.5305 16.604 14.1609 16.8657 13.7889 17.0835C13.417 17.3013 13.0297 17.4743 12.627 17.6027L12.3156 20.0655C12.2676 20.3315 12.1426 20.5536 11.9405 20.7317C11.7384 20.9098 11.5005 20.9992 11.2268 21H8.7732ZM8.82038 19.8333H11.1277L11.563 16.674C12.1575 16.5184 12.6923 16.3049 13.1673 16.0335C13.6438 15.7621 14.1283 15.3903 14.6206 14.9182L17.5637 16.1583L18.7363 14.175L16.1541 12.257C16.2524 11.9249 16.3176 11.6192 16.3499 11.34C16.3813 11.0616 16.3971 10.7816 16.3971 10.5C16.3971 10.2044 16.3813 9.92445 16.3499 9.66C16.3184 9.39556 16.2532 9.10506 16.1541 8.7885L18.7811 6.825L17.6085 4.84167L14.5982 6.09C14.2411 5.70189 13.772 5.33828 13.1909 4.99917C12.6089 4.66084 12.0584 4.43645 11.5394 4.326L11.1796 1.16667H8.82746L8.45942 4.30384C7.86489 4.42906 7.31833 4.63128 6.81975 4.9105C6.32195 5.18895 5.82651 5.572 5.33343 6.05967L2.39146 4.84167L1.21892 6.825L3.77751 8.715C3.67921 8.97634 3.6104 9.26023 3.57108 9.56667C3.53176 9.87311 3.5121 10.192 3.5121 10.5233C3.5121 10.8189 3.53176 11.1125 3.57108 11.4042C3.6104 11.6958 3.67174 11.9797 3.7551 12.2558L1.21892 14.175L2.39146 16.1583L5.31102 14.9333C5.77421 15.3953 6.25471 15.7659 6.75251 16.0452C7.2511 16.3244 7.81259 16.5418 8.43701 16.6973L8.82038 19.8333ZM9.96815 13.4167C10.7907 13.4167 11.4879 13.1339 12.0596 12.5685C12.6313 12.0031 12.9172 11.3136 12.9172 10.5C12.9172 9.68645 12.6313 8.99695 12.0596 8.4315C11.4879 7.86606 10.7907 7.58334 9.96815 7.58334C9.14084 7.58334 8.44251 7.86606 7.87315 8.4315C7.30378 8.99695 7.0191 9.68645 7.0191 10.5C7.0191 11.3136 7.30378 12.0031 7.87315 12.5685C8.44251 13.1339 9.14084 13.4167 9.96815 13.4167Z" fill="black"/>
</svg>
