<svg width="30" height="24" viewBox="0 0 30 24" fill="none" xmlns="http://www.w3.org/2000/svg">
<path d="M19.6667 1V4.14286M19.6667 10.4286V13.5714M19.6667 19.8571V23M4.11111 1H25.8889C26.714 1 27.5053 1.33112 28.0888 1.92052C28.6722 2.50992 29 3.30932 29 4.14286V8.85714C28.1749 8.85714 27.3836 9.18827 26.8001 9.77767C26.2167 10.3671 25.8889 11.1665 25.8889 12C25.8889 12.8335 26.2167 13.6329 26.8001 14.2223C27.3836 14.8117 28.1749 15.1429 29 15.1429V19.8571C29 20.6907 28.6722 21.4901 28.0888 22.0795C27.5053 22.6689 26.714 23 25.8889 23H4.11111C3.28599 23 2.49467 22.6689 1.91122 22.0795C1.32778 21.4901 1 20.6907 1 19.8571V15.1429C1.82512 15.1429 2.61644 14.8117 3.19989 14.2223C3.78333 13.6329 4.11111 12.8335 4.11111 12C4.11111 11.1665 3.78333 10.3671 3.19989 9.77767C2.61644 9.18827 1.82512 8.85714 1 8.85714V4.14286C1 3.30932 1.32778 2.50992 1.91122 1.92052C2.49467 1.33112 3.28599 1 4.11111 1Z" stroke="black" stroke-width="2" stroke-linecap="round" stroke-linejoin="round"/>
</svg>
