<svg width="64" height="12" viewBox="0 0 64 12" fill="none" xmlns="http://www.w3.org/2000/svg">
<path d="M3.95184 11.2C3.7705 11.2 3.6265 11.152 3.51984 11.056C3.41317 10.96 3.3385 10.848 3.29584 10.72L0.0318359 0.480012C0.0105026 0.426679 -0.000164032 0.378679 -0.000164032 0.336012C-0.000164032 0.250678 0.031836 0.176012 0.095836 0.112012C0.170503 0.0373449 0.255836 1.14441e-05 0.351836 1.14441e-05H2.33584C2.5065 1.14441e-05 2.63984 0.0480115 2.73584 0.144011C2.83184 0.240012 2.8905 0.330678 2.91184 0.416012L5.16784 7.80801L7.43984 0.416012C7.47184 0.330678 7.5305 0.240012 7.61584 0.144011C7.71184 0.0480115 7.84517 1.14441e-05 8.01584 1.14441e-05H9.99984C10.0958 1.14441e-05 10.1758 0.0373449 10.2398 0.112012C10.3145 0.176012 10.3518 0.250678 10.3518 0.336012C10.3518 0.378679 10.3412 0.426679 10.3198 0.480012L7.05584 10.72C7.01317 10.848 6.9385 10.96 6.83184 11.056C6.73584 11.152 6.59184 11.2 6.39984 11.2H3.95184ZM12.2456 11.2C12.1283 11.2 12.0323 11.1627 11.9576 11.088C11.8829 11.0133 11.8456 10.9173 11.8456 10.8V0.400012C11.8456 0.282678 11.8829 0.186678 11.9576 0.112012C12.0323 0.0373449 12.1283 1.14441e-05 12.2456 1.14441e-05H19.7176C19.8349 1.14441e-05 19.9309 0.0373449 20.0056 0.112012C20.0803 0.186678 20.1176 0.282678 20.1176 0.400012V1.90401C20.1176 2.02134 20.0803 2.11734 20.0056 2.19201C19.9309 2.26668 19.8349 2.30401 19.7176 2.30401H14.6136V4.46401H19.3656C19.4829 4.46401 19.5789 4.50668 19.6536 4.59201C19.7283 4.66668 19.7656 4.76268 19.7656 4.88001V6.27201C19.7656 6.37868 19.7283 6.47468 19.6536 6.56001C19.5789 6.63468 19.4829 6.67201 19.3656 6.67201H14.6136V8.89601H19.8456C19.9629 8.89601 20.0589 8.93335 20.1336 9.00801C20.2083 9.08268 20.2456 9.17868 20.2456 9.29601V10.8C20.2456 10.9173 20.2083 11.0133 20.1336 11.088C20.0589 11.1627 19.9629 11.2 19.8456 11.2H12.2456ZM22.4643 11.2C22.347 11.2 22.251 11.1627 22.1763 11.088C22.1017 11.0133 22.0643 10.9173 22.0643 10.8V0.400012C22.0643 0.282678 22.1017 0.186678 22.1763 0.112012C22.251 0.0373449 22.347 1.14441e-05 22.4643 1.14441e-05H26.8163C28.1923 1.14441e-05 29.275 0.320011 30.0643 0.960011C30.8643 1.58934 31.2643 2.48535 31.2643 3.64801C31.2643 4.40535 31.0777 5.04535 30.7043 5.56801C30.3417 6.09068 29.8617 6.48535 29.2643 6.75201L31.4723 10.688C31.5043 10.752 31.5203 10.8107 31.5203 10.864C31.5203 10.9493 31.483 11.0293 31.4083 11.104C31.3443 11.168 31.2643 11.2 31.1683 11.2H29.0563C28.8537 11.2 28.7043 11.152 28.6083 11.056C28.5123 10.9493 28.443 10.8533 28.4003 10.768L26.5763 7.24801H24.9283V10.8C24.9283 10.9173 24.891 11.0133 24.8163 11.088C24.7417 11.1627 24.6457 11.2 24.5283 11.2H22.4643ZM24.9283 4.99201H26.7843C27.2857 4.99201 27.659 4.86935 27.9043 4.62401C28.1603 4.37868 28.2883 4.04268 28.2883 3.61601C28.2883 3.20001 28.1657 2.86401 27.9203 2.60801C27.6857 2.35201 27.307 2.22401 26.7843 2.22401H24.9283V4.99201ZM35.8815 11.2C35.7641 11.2 35.6681 11.1627 35.5935 11.088C35.5188 11.0133 35.4815 10.9173 35.4815 10.8V2.51201H32.6335C32.5161 2.51201 32.4201 2.47468 32.3455 2.40001C32.2708 2.31468 32.2335 2.21868 32.2335 2.11201V0.400012C32.2335 0.282678 32.2708 0.186678 32.3455 0.112012C32.4201 0.0373449 32.5161 1.14441e-05 32.6335 1.14441e-05H41.2415C41.3588 1.14441e-05 41.4548 0.0373449 41.5295 0.112012C41.6041 0.186678 41.6415 0.282678 41.6415 0.400012V2.11201C41.6415 2.21868 41.6041 2.31468 41.5295 2.40001C41.4548 2.47468 41.3588 2.51201 41.2415 2.51201H38.3935V10.8C38.3935 10.9173 38.3561 11.0133 38.2815 11.088C38.2068 11.1627 38.1108 11.2 37.9935 11.2H35.8815ZM43.4956 11.2C43.3783 11.2 43.2823 11.1627 43.2076 11.088C43.1329 11.0133 43.0956 10.9173 43.0956 10.8V0.400012C43.0956 0.282678 43.1329 0.186678 43.2076 0.112012C43.2823 0.0373449 43.3783 1.14441e-05 43.4956 1.14441e-05H50.9676C51.0849 1.14441e-05 51.1809 0.0373449 51.2556 0.112012C51.3303 0.186678 51.3676 0.282678 51.3676 0.400012V1.90401C51.3676 2.02134 51.3303 2.11734 51.2556 2.19201C51.1809 2.26668 51.0849 2.30401 50.9676 2.30401H45.8636V4.46401H50.6156C50.7329 4.46401 50.8289 4.50668 50.9036 4.59201C50.9783 4.66668 51.0156 4.76268 51.0156 4.88001V6.27201C51.0156 6.37868 50.9783 6.47468 50.9036 6.56001C50.8289 6.63468 50.7329 6.67201 50.6156 6.67201H45.8636V8.89601H51.0956C51.2129 8.89601 51.3089 8.93335 51.3836 9.00801C51.4583 9.08268 51.4956 9.17868 51.4956 9.29601V10.8C51.4956 10.9173 51.4583 11.0133 51.3836 11.088C51.3089 11.1627 51.2129 11.2 51.0956 11.2H43.4956ZM52.7223 11.2C52.6263 11.2 52.541 11.168 52.4663 11.104C52.4023 11.0293 52.3703 10.9493 52.3703 10.864C52.3703 10.832 52.3757 10.8 52.3863 10.768C52.397 10.736 52.413 10.704 52.4343 10.672L55.9223 5.48801L52.6903 0.528011C52.6583 0.464012 52.6423 0.400012 52.6423 0.336012C52.6423 0.250678 52.6743 0.176012 52.7383 0.112012C52.8023 0.0373449 52.8823 1.14441e-05 52.9783 1.14441e-05H55.2983C55.4583 1.14441e-05 55.581 0.0426782 55.6663 0.128012C55.7517 0.202678 55.8103 0.272011 55.8423 0.336012L57.7623 3.24801L59.6983 0.336012C59.741 0.272011 59.805 0.202678 59.8903 0.128012C59.9757 0.0426782 60.0983 1.14441e-05 60.2583 1.14441e-05H62.4503C62.5463 1.14441e-05 62.6263 0.0373449 62.6903 0.112012C62.765 0.176012 62.8023 0.250678 62.8023 0.336012C62.8023 0.410678 62.781 0.474678 62.7383 0.528011L59.4903 5.47201L63.0103 10.672C63.0317 10.704 63.0423 10.736 63.0423 10.768C63.053 10.8 63.0583 10.832 63.0583 10.864C63.0583 10.9493 63.0263 11.0293 62.9623 11.104C62.8983 11.168 62.8183 11.2 62.7223 11.2H60.3383C60.1783 11.2 60.0503 11.1627 59.9543 11.088C59.869 11.0027 59.8103 10.9333 59.7783 10.88L57.6503 7.80801L55.5703 10.88C55.5383 10.9333 55.4797 11.0027 55.3943 11.088C55.309 11.1627 55.1863 11.2 55.0263 11.2H52.7223Z" fill="url(#paint0_linear_647_4301)"/>
<defs>
<linearGradient id="paint0_linear_647_4301" x1="-20.5635" y1="28.7" x2="63.4365" y2="-8.29999" gradientUnits="userSpaceOnUse">
<stop stop-color="#9747FF"/>
<stop offset="1" stop-color="#6095DB"/>
</linearGradient>
</defs>
</svg>
